<?xml version="1.0" encoding="utf-8"?>
<!-- Generator: Adobe Illustrator 25.4.1, SVG Export Plug-In . SVG Version: 6.00 Build 0)  -->
<svg version="1.1" id="Layer_1" xmlns="http://www.w3.org/2000/svg" xmlns:xlink="http://www.w3.org/1999/xlink" x="0px" y="0px"
	 viewBox="0 0 60 38" enable-background="new 0 0 60 38" xml:space="preserve">
<g>
	<g id="Layer_2_00000108279448450082764530000014650992239375452300_">
		<g id="Layer_1-2">
			<path d="M4.5,22.8v1.3v5L7.6,29l-0.2-3.7h0.3v-1c0.2,0,0.4,0.1,0.5,0.1v-0.3c0.2,0,0.4,0,0.6,0c0.8,0,1.5-0.3,2.1-0.8
				c0,0,0.4-0.4,1.2-1.2l0.5,1.7h2.9c-0.2-1.8-0.3-2.7-0.3-2.7v-0.2h-0.6v-3.6h0.6v-6.4H12v6.4h-0.6v2c-0.3,0.7-0.7,1.2-1,1.6H11
				c-0.5,0.6-1.1,0.8-1.7,0.8c-0.4,0-0.8-0.1-1.1-0.3v0.3c-0.3-0.2-0.5-0.5-0.7-0.9H7.2l-0.1-3.6h0.3v-5.9H4.3l0,0l0,0v1.8L4.5,22.8
				z M4.6,21.8L4.6,21.8"/>
		</g>
		<g id="Layer_2-2">
			
				<linearGradient id="SVGID_1_" gradientUnits="userSpaceOnUse" x1="0.9986" y1="795.0376" x2="12.1099" y2="806.5033" gradientTransform="matrix(1 0 0 1 0 -781.3384)">
				<stop  offset="0" style="stop-color:#521AC2"/>
				<stop  offset="1" style="stop-color:#E502C2"/>
			</linearGradient>
			<path fill="url(#SVGID_1_)" d="M1.9,23v1.3v5.1L5,29.3l-0.2-3.7h0.3v-1c0.2,0,0.4,0.1,0.5,0.1v-0.3c0.2,0,0.4,0,0.6,0
				c0.8,0,1.5-0.3,2.1-0.8c0,0,0.4-0.4,1.2-1.3L10,24h2.9c-0.2-1.8-0.3-2.7-0.3-2.7v-0.4H12v-3.6h0.6v-6.4h-1.8
				c-0.8,0-1.4,0.6-1.4,1.4v5H8.8v2.1c-0.3,0.7-0.7,1.2-1,1.6h0.6c-0.5,0.6-1.1,0.9-1.7,0.9c-0.4,0-0.8-0.1-1.1-0.3v0.3
				C5.3,21.7,5.1,21.4,5,21H4.6l-0.1-3.6h0.4v-6.1H3.1c-0.8,0-1.4,0.6-1.4,1.4l0,0L1.9,23z M2,22L2,22"/>
		</g>
	</g>
	<g>
		<path d="M19.1,18.7h2.3v2.5h-2.3V18.7z M23.7,21.8c0.9,0,1.6-0.2,2.1-0.6h3c-0.8,1.7-2.6,2.5-5.3,2.5h-4.1V11.1h4.1
			c2.1,0,3.6,0.5,4.5,1.4c1,1,1.5,2.6,1.5,4.8c0,0.5,0,0.9-0.1,1.3h-2.5c0.1-0.4,0.1-0.8,0.1-1.3c0-1.8-0.3-3-1-3.6
			c-0.5-0.5-1.3-0.7-2.4-0.7H22v5.7h-2.3v2.5H22v0.6H23.7z M28.9,18.6c-0.1,1-0.3,1.9-0.6,2.6h-3c0.6-0.5,0.9-1.4,1.1-2.6H28.9z"/>
		
			<linearGradient id="SVGID_00000168806941558637054050000013218992016067125406_" gradientUnits="userSpaceOnUse" x1="16.948" y1="-728.8" x2="27.3348" y2="-728.8" gradientTransform="matrix(1 0 0 -1 0 -711.4)">
			<stop  offset="0" style="stop-color:#521AC2"/>
			<stop  offset="1" style="stop-color:#E502C2"/>
		</linearGradient>
		<path fill="url(#SVGID_00000168806941558637054050000013218992016067125406_)" d="M16.9,18.7h2.3v2.5h-2.3V18.7z M21.5,21.8
			c0.9,0,1.6-0.2,2.1-0.6h3c-0.8,1.7-2.6,2.5-5.3,2.5h-4.1V12.3c0-0.7,0.6-1.2,1.2-1.2h2.9c2.1,0,3.6,0.5,4.5,1.4
			c1,1,1.5,2.6,1.5,4.8c0,0.5,0,0.9-0.1,1.3h-2.5c0.1-0.4,0.1-0.8,0.1-1.3c0-1.8-0.3-3-1-3.6c-0.5-0.5-1.3-0.7-2.4-0.7h-1.6v5.7
			h-2.4v2.5h2.3v0.6H21.5L21.5,21.8z M26.8,18.6c-0.1,1-0.3,1.9-0.6,2.6h-3c0.6-0.5,0.9-1.4,1.1-2.6H26.8z"/>
	</g>
	<g>
		<path d="M32.1,16h2.3v2.5h-2.3V16L32.1,16z M33.7,16h0.2v2.5h-0.2V16z M33.7,16h0.2v2.5h-0.2V16z M37.2,11.3V16h-0.1l-0.9-1.9V16
			h-2.3v-4.7H37.2z M33.9,18.5h2.3v5.3h-2.3V18.5L33.9,18.5z M39.1,18.5h-2.6L35.4,16l0,0H38L39.1,18.5z M37.2,16v0.3V16L37.2,16
			L37.2,16z M37.5,11.1l2.3,4.9h-2.6v-4.9H37.5z M44.3,18.5v5.1h-3.6l-2.3-5.1H41l1,2.2v-2.2H44.3z M40.1,16h2.4v2.5h-2.4V16z
			 M41.9,11h2.4v5h-2.4V11z"/>
		
			<linearGradient id="SVGID_00000140701726247579407870000008606912760793849266_" gradientUnits="userSpaceOnUse" x1="30.024" y1="-728.8" x2="42.2048" y2="-728.8" gradientTransform="matrix(1 0 0 -1 0 -711.4)">
			<stop  offset="0" style="stop-color:#521AC2"/>
			<stop  offset="1" style="stop-color:#E502C2"/>
		</linearGradient>
		<path fill="url(#SVGID_00000140701726247579407870000008606912760793849266_)" d="M30.7,16h1.7v2.5h-2.3v-1.8
			C30,16.3,30.3,16,30.7,16z M31.6,16h0.2v2.5h-0.2V16z M31.6,16h0.2v2.5h-0.2V16z M35.1,11.2V16H35l-0.9-1.9V16h-2.3v-4.1
			c0-0.4,0.3-0.6,0.6-0.6L35.1,11.2L35.1,11.2z M31.8,18.5h2.3v5.3h-2.3V18.5z M37,18.5h-2.6L33.3,16l0,0h2.6L37,18.5z M35.1,16v0.3
			V16L35.1,16L35.1,16z M35.4,11l2.3,5h-2.6v-4.8C35.1,11.1,35.2,11,35.4,11C35.2,11,35.4,11,35.4,11z M42.2,18.5v5.1h-3.6l-2.3-5.1
			h2.6l1,2.2v-2.2H42.2z M38,16h2.4v2.5H38V16z M40.4,11h1.7v5h-2.4v-4.3C39.8,11.3,40.1,11,40.4,11z"/>
	</g>
	<g>
		<path d="M50.7,14.6c0,0.5,0.3,0.9,0.8,1.2v2.5c-1-0.4-1.8-0.8-2.3-1.3c-0.7-0.6-1-1.4-1-2.5c0-0.9,0.3-1.7,1-2.2
			c0.6-0.5,1.3-0.9,2.3-1.1v2C50.9,13.6,50.7,14,50.7,14.6z M49,21.6c1.2,0.4,2,0.7,2.6,0.7v1.9c-1-0.1-2.1-0.3-3.3-0.6L49,21.6z
			 M53,12.4c-0.6,0-1.1,0.1-1.5,0.3v-2c0.5-0.1,1-0.1,1.5-0.1c0.6,0,1.2,0.1,2,0.2v2.1C54.3,12.5,53.6,12.4,53,12.4z M55,18h-2.5
			c-0.1,0-0.3-0.1-0.5-0.2s-0.4-0.2-0.5-0.2c0,0,0,0-0.1,0v-2.5c0.3,0.1,0.8,0.4,1.7,0.7c0.8,0.3,1.4,0.5,1.8,0.8L55,18L55,18z
			 M55,20.5v2.7c-0.8,0.3-1.8,0.5-3.1,0.5c-0.1,0-0.3,0-0.4,0v-1.9c0.2,0,0.3,0,0.5,0c0.8,0,1.3-0.1,1.7-0.2c0.5-0.2,0.8-0.5,0.9-1
			H55V20.5z M54.6,20.5h-0.4c0-0.1,0-0.3,0-0.5c0-0.5-0.2-0.9-0.6-1.2c-0.3-0.2-0.8-0.5-1.5-0.8h2.5V20.5L54.6,20.5z M55.7,18
			c0.6,0.6,1,1.5,1,2.5h-2.1V18H55.7z M55.8,13.7c-0.3-0.1-0.6-0.2-0.8-0.3v-2.1c0.6,0.1,1.1,0.2,1.5,0.3L55.8,13.7z M55,18v-0.8
			c0.4,0.2,0.8,0.5,1.1,0.8H55z M55,20.5h2.1c0,0.1,0,0.2,0,0.2c0,1.6-0.7,2.6-2.1,3.2V20.5z"/>
		
			<linearGradient id="SVGID_00000003791733328414547200000017431809822298569394_" gradientUnits="userSpaceOnUse" x1="46.7259" y1="-728.8" x2="55.6403" y2="-728.8" gradientTransform="matrix(1 0 0 -1 0 -711.4)">
			<stop  offset="0" style="stop-color:#521AC2"/>
			<stop  offset="1" style="stop-color:#E502C2"/>
		</linearGradient>
		<path fill="url(#SVGID_00000003791733328414547200000017431809822298569394_)" d="M49.2,14.6c0,0.5,0.3,0.9,0.8,1.2v2.5
			c-1-0.4-1.8-0.8-2.3-1.3c-0.7-0.6-1-1.4-1-2.5c0-0.9,0.3-1.7,1-2.2c0.6-0.5,1.3-0.9,2.3-1.1v2C49.5,13.6,49.2,14,49.2,14.6z
			 M48,21.8c0.9,0.3,1.6,0.5,2.1,0.6v1.9c-1-0.1-2.1-0.3-3.3-0.6l0.6-1.5C47.4,21.9,47.7,21.7,48,21.8z M51.5,12.4
			c-0.6,0-1.1,0.1-1.5,0.3v-1.5c0-0.3,0.2-0.5,0.5-0.6c0.3,0,0.7-0.1,1-0.1c0.6,0,1.2,0.1,2,0.2v2.1C52.8,12.5,52.2,12.4,51.5,12.4z
			 M53.5,18H51c-0.1,0-0.3-0.1-0.5-0.2s-0.4-0.2-0.5-0.2c0,0,0,0-0.1,0v-2.5c0.3,0.1,0.8,0.4,1.7,0.7c0.8,0.3,1.4,0.5,1.8,0.8
			L53.5,18L53.5,18z M53.5,20.5v2.7c-0.8,0.3-1.8,0.5-3.1,0.5c-0.1,0-0.3,0-0.4,0v-1.6c0-0.2,0.1-0.3,0.3-0.3h0.1
			c0.8,0,1.3-0.1,1.7-0.2c0.5-0.2,0.8-0.5,0.9-1L53.5,20.5L53.5,20.5z M53.1,20.5h-0.4c0-0.1,0-0.3,0-0.5c0-0.5-0.2-0.9-0.6-1.2
			c-0.3-0.2-0.8-0.5-1.5-0.8h2.5V20.5L53.1,20.5z M54.2,18c0.6,0.6,1,1.5,1,2.5h-2.1V18H54.2z M54.3,13.7c-0.3-0.1-0.6-0.2-0.8-0.3
			v-2.1c0.6,0.1,1.1,0.2,1.5,0.3L54.3,13.7z M53.5,18v-0.8c0.4,0.2,0.8,0.5,1.1,0.8H53.5z M53.5,20.5h2.1c0,0.1,0,0.2,0,0.2
			c0,1.6-0.7,2.6-2.1,3.2V20.5z"/>
	</g>
</g>
</svg>
